<svg xmlns="http://www.w3.org/2000/svg" viewBox="0 0 720 470"><rect width="720" height="470" fill="#8a6244"/><rect y="160" width="720" height="310" fill="#4b4844"/><rect x="0" y="0" width="720" height="150" fill="#7b5538"/><g stroke="#5b3e2b" stroke-width="8"><path d="M35 0v150"/><path d="M95 0v150"/><path d="M155 0v150"/><path d="M215 0v150"/><path d="M275 0v150"/><path d="M335 0v150"/><path d="M395 0v150"/><path d="M455 0v150"/><path d="M515 0v150"/><path d="M575 0v150"/><path d="M635 0v150"/></g><circle cx="360" cy="150" r="45" fill="#c78559"/><rect x="300" y="194" width="120" height="130" rx="30" fill="#24594d"/><path d="M405 170c60 12 88 22 102 57" stroke="#c78559" stroke-width="24" stroke-linecap="round"/><rect x="495" y="188" width="44" height="42" rx="12" fill="#1e1e1e"/><rect x="254" y="328" width="220" height="95" rx="10" fill="#d9d5c7"/><path d="M300 323l-75 95M420 323l96 96" stroke="#111" stroke-width="20" stroke-linecap="round"/><ellipse cx="105" cy="430" rx="86" ry="14" fill="#e85237"/></svg>
