<svg xmlns="http://www.w3.org/2000/svg" width="512" height="512" viewBox="0 0 48 48">
  <rect width="48" height="48" rx="12" fill="#F7F1E8"/>
  <circle cx="24" cy="24" r="20" fill="none" stroke="#D79A22" stroke-width="1.2" opacity="0.18"/>
  <g fill="none" stroke="#D79A22" stroke-width="2.4" stroke-linecap="round" stroke-linejoin="round">
    <path d="M24 4C16 12 13 17 13 24a11 11 0 0 0 22 0c0-5-3-9-7-13 1 5-1 8-4 10 0-5-1-10-0-17z"/><path d="M23 31c-3-4-2-8 2-13 0 4 4 6 4 11a6 6 0 1 1-12 0"/>
  </g>
</svg>