<svg xmlns="http://www.w3.org/2000/svg" width="512" height="512" viewBox="0 0 48 48">
  <rect width="48" height="48" rx="12" fill="#F7F1E8"/>
  <circle cx="24" cy="24" r="20" fill="none" stroke="#D79A22" stroke-width="1.2" opacity="0.18"/>
  <g fill="none" stroke="#D79A22" stroke-width="2.4" stroke-linecap="round" stroke-linejoin="round">
    <path d="M24 6a18 18 0 0 0-15 28L7 42l8-2A18 18 0 1 0 24 6z"/><path d="M17 16c1-2 3-2 4 0l1 3c0 1-1 2-2 2 2 4 5 7 9 8 0-1 1-3 2-3l3 1c2 1 2 3 0 4-2 3-8 1-13-4s-8-11-4-13z"/>
  </g>
</svg>